<?xml version="1.0" encoding="utf-8"?>
<!-- Generator: Adobe Illustrator 24.0.1, SVG Export Plug-In . SVG Version: 6.00 Build 0)  -->
<svg version="1.1" id="Layer_1" xmlns="http://www.w3.org/2000/svg" xmlns:xlink="http://www.w3.org/1999/xlink" x="0px" y="0px"
	 viewBox="0 0 414.36 289.74" style="enable-background:new 0 0 414.36 289.74;" xml:space="preserve">
<style type="text/css">
	.st0{fill:#131414;}
	.st1{fill:#1A1718;}
	.st2{fill:#353737;}
	.st3{opacity:0.4;fill:#131414;}
	.st4{fill:#808483;}
	.st5{fill:#333434;}
	.st6{opacity:0.5;fill:#808483;}
	.st7{opacity:0.75;fill:#D1D4D3;}
	.st8{fill:#EA526F;}
	.st9{fill:#612301;}
	.st10{fill:#EDA36D;}
	.st11{opacity:0.4;fill:#EA526F;}
	.st12{opacity:0.4;fill:#721603;}
	.st13{fill:#373839;}
	.st14{fill:#2C2C2D;}
	.st15{opacity:0.4;fill:#2C2C2D;}
	.st16{fill:#DD6A17;}
	.st17{opacity:0.7;fill:#EA526F;}
	.st18{fill:#FFFFFF;}
	.st19{fill:#A9001E;}
	.st20{fill:#313333;}
	.st21{fill:#262727;}
	.st22{fill:#363737;}
	.st23{fill:#752820;}
	.st24{fill:#BFC0C2;}
	.st25{fill:#E59B09;}
	.st26{fill:#1C1A1B;}
	.st27{fill:#E7CAA5;}
</style>
<g>
	<g>
		<g>
			<path class="st0" d="M335.68,163.5c-12.5-8.7-34.39-22.97-44.8-22.97l-57.12-3.28c-14.26,0-14.26,14.26-14.26,14.26v36.88h126.47
				v-12.63C344.78,171.86,340.91,167.83,335.68,163.5z"/>
			<path class="st1" d="M346.47,188.89H219v-37.38c0-0.15,0.02-3.73,1.84-7.35c1.69-3.38,5.3-7.41,12.92-7.41l57.15,3.28
				c9.83,0,29.93,12.54,45.06,23.06c6.18,5.11,9.4,8.96,10.48,12.51l0.02,0.15V188.89z M220,187.89h125.47v-12.06
				c-1.04-3.33-4.17-7.01-10.11-11.94c-21.49-14.94-36.89-22.86-44.48-22.86l-57.15-3.28c-5.67,0-9.71,2.3-11.99,6.83
				c-1.72,3.42-1.75,6.9-1.75,6.94V187.89z"/>
		</g>
		<g>
			<path class="st2" d="M288.86,140.41c-2.28,5.39-3.29,11.58,2.23,15.39c4.9,3.38,10.81,5.12,16.01,8.01
				c3.67,2.04,7.39,4.01,11.12,5.95c3.3,1.72,6.65,3.95,10.18,5.16c5.47,1.88,11.67,1.59,16.63-1.35
				c-1.74-3.22-5.08-6.55-9.34-10.07c-12.5-8.7-34.39-22.97-44.8-22.97L288.86,140.41z"/>
			<path class="st1" d="M335.43,176.61L335.43,176.61c-2.43,0-4.86-0.41-7.2-1.21c-2.5-0.86-4.91-2.22-7.25-3.54
				c-1.01-0.57-2-1.13-3-1.65c-4.52-2.35-7.95-4.19-11.13-5.95c-2.12-1.18-4.41-2.18-6.62-3.16c-3.2-1.41-6.51-2.86-9.43-4.88
				c-4.71-3.26-5.53-8.64-2.41-16l0.14-0.33l2.38,0.14c9.83,0,29.93,12.54,45.06,23.06c4.89,4.05,7.89,7.29,9.49,10.25l0.23,0.42
				l-0.41,0.25C342.4,175.71,339,176.61,335.43,176.61z M289.18,140.93c-2.79,6.79-2.07,11.52,2.2,14.46
				c2.84,1.96,6.1,3.4,9.26,4.79c2.23,0.98,4.55,2,6.71,3.2c3.17,1.76,6.59,3.59,11.1,5.94c1,0.52,2.01,1.09,3.03,1.67
				c2.29,1.3,4.67,2.64,7.08,3.47c5.34,1.83,11.26,1.44,15.79-1.06c-1.59-2.73-4.46-5.76-8.98-9.5
				c-21.49-14.94-36.89-22.86-44.48-22.86L289.18,140.93z"/>
		</g>
		<g>
			<path class="st2" d="M288.99,177.08c0,16.06-13.02,29.09-29.09,29.09c-16.07,0-29.09-13.03-29.09-29.09
				c0-16.07,13.02-29.09,29.09-29.09C275.97,147.99,288.99,161.01,288.99,177.08z"/>
			<path class="st1" d="M259.9,206.67c-16.32,0-29.59-13.27-29.59-29.59c0-16.32,13.27-29.59,29.59-29.59
				c16.32,0,29.59,13.27,29.59,29.59C289.49,193.4,276.22,206.67,259.9,206.67z M259.9,148.49c-15.77,0-28.59,12.83-28.59,28.59
				c0,15.76,12.82,28.59,28.59,28.59c15.76,0,28.59-12.83,28.59-28.59C288.49,161.32,275.67,148.49,259.9,148.49z"/>
		</g>
		<g>
			<circle cx="259.9" cy="177.53" r="23.57"/>
			<path class="st1" d="M259.9,201.6c-13.27,0-24.07-10.8-24.07-24.07c0-13.27,10.8-24.07,24.07-24.07
				c13.27,0,24.07,10.8,24.07,24.07C283.97,190.8,273.17,201.6,259.9,201.6z M259.9,154.46c-12.72,0-23.07,10.35-23.07,23.07
				c0,12.72,10.35,23.07,23.07,23.07c12.72,0,23.07-10.35,23.07-23.07C282.97,164.81,272.62,154.46,259.9,154.46z"/>
		</g>
		<rect x="219.5" y="179.52" class="st3" width="126.47" height="8.87"/>
	</g>
	<g>
		<g>
			<g>
				<g>
					<g>
						<g>
							<polygon class="st4" points="158.91,221.08 168.75,215.71 66.05,46.48 55.08,50.73 							"/>
							<path class="st5" d="M158.73,221.75l-0.25-0.41L54.34,50.48l11.92-4.62l0.22,0.36L169.45,215.9L158.73,221.75z M55.82,50.98
								l103.27,169.44l8.97-4.89L65.84,47.09L55.82,50.98z"/>
						</g>
						<path class="st4" d="M148.13,181.73c-1.06,1.71-3.23,6.1-3.46,5.65c-2.4-4.57-85.46-129.18-75.16-135.21l-3.45-5.69
							l-10.98,4.25l103.83,170.36l9.85-5.37L148.13,181.73z"/>
						<path class="st6" d="M120.45,134.91l6.49,10.55c-0.16-0.21-0.32-0.42-0.53-0.64C123.81,142.27,122.04,138.62,120.45,134.91z"
							/>
						<path class="st7" d="M130.69,161.66c1,1.68,2.29,2.73,2.9,2.36l0,0c0.61-0.37,0.31-2-0.7-3.67L78.54,69.58
							c-1-1.68-2.3-2.72-2.91-2.36l0,0c-0.6,0.37-0.29,2.01,0.71,3.68L130.69,161.66z"/>
						<g>
							<path class="st8" d="M51.62,13.61c0,0,15.31,27.46,17.59,31.46c2.28,4.01,0.7,3.74-1.32,5.1c-2.03,1.37-9.8,6.03-11.59,6.88
								c-1.79,0.87-2.94,2.33-4.81-0.56c-1.89-2.9-21.31-32.44-21.31-32.44L51.62,13.61z"/>
							<path class="st9" d="M53.67,58.7c-0.92,0-1.75-0.62-2.61-1.94c-1.86-2.87-21.12-32.14-21.31-32.43l-0.31-0.47l22.38-10.9
								l0.23,0.41c0.15,0.27,15.34,27.5,17.59,31.45c1.02,1.79,1.35,2.85,1.12,3.65c-0.21,0.76-0.86,1.12-1.61,1.53
								c-0.3,0.17-0.63,0.35-0.98,0.58c-2.04,1.37-9.83,6.05-11.66,6.92c-0.29,0.14-0.56,0.3-0.82,0.45
								C55.02,58.33,54.39,58.7,53.67,58.7z M30.9,24.25c2.51,3.82,19.27,29.3,21,31.96c0.86,1.33,1.42,1.48,1.77,1.48
								c0.45,0,0.94-0.29,1.52-0.62c0.28-0.16,0.58-0.33,0.89-0.48c1.76-0.83,9.56-5.52,11.53-6.85c0.37-0.25,0.73-0.45,1.06-0.63
								c0.66-0.36,1.04-0.59,1.14-0.93c0.14-0.48-0.2-1.43-1.03-2.88c-2.1-3.69-15.44-27.6-17.37-31.05L30.9,24.25z"/>
						</g>
						<path class="st10" d="M51.8,22.34c3.12,5.71,13.55,23.73,15.49,27.17c-0.43,0.33-0.89,0.65-1.34,0.96
							c-2.16-4.02-12.81-21.44-15.94-26.25C50.63,23.6,51.22,22.98,51.8,22.34z"/>
						<path class="st11" d="M30.17,24.05c0,0,19.43,29.54,21.31,32.44c1.88,2.89,3.02,1.43,4.81,0.56
							c1.79-0.85,9.56-5.52,11.59-6.88c2.02-1.36,3.6-1.09,1.32-5.1c-2.28-4-17.59-31.46-17.59-31.46L30.17,24.05z M52.42,26.97
							c3.9-4.85,6.34,2.5,7.34,4.41c1.9,3.65,4.92,8.66,6.66,12.39c1.87,3.96-2.86,5.41-5.9,7.16c-1.34,0.78-2.7,0.54-3.69-0.65
							c-3.84-4.52-5.42-7.42-8.64-12.32C45.39,33.69,49.91,30.1,52.42,26.97z"/>
						<path class="st12" d="M41.11,40.67c-5.44-8.27-10.94-16.62-10.94-16.62l21.44-10.44c0,0,2.34,4.2,5.3,9.53
							C49,25.1,43.79,32.24,41.11,40.67z"/>
					</g>
					<g>
						<g>
							<polygon class="st4" points="149.36,239.58 159.2,234.21 56.5,64.98 45.53,69.22 							"/>
							<path class="st5" d="M149.18,240.25l-0.25-0.41L44.79,68.97l11.92-4.62l0.22,0.36L159.9,234.4L149.18,240.25z M46.27,69.47
								l103.27,169.44l8.97-4.89L56.29,65.59L46.27,69.47z"/>
						</g>
						<path class="st4" d="M138.58,200.23c-1.06,1.71-3.23,6.1-3.46,5.65c-2.4-4.57-85.46-129.18-75.16-135.21l-3.45-5.69
							l-10.98,4.25l103.83,170.36l9.85-5.37L138.58,200.23z"/>
						<path class="st6" d="M110.91,153.41l6.49,10.55c-0.15-0.21-0.32-0.42-0.53-0.64C114.26,160.77,112.49,157.12,110.91,153.41z"
							/>
						<path class="st7" d="M121.15,180.16c1,1.68,2.29,2.73,2.9,2.36l0,0c0.61-0.37,0.31-2-0.7-3.67L68.99,88.08
							c-1-1.68-2.3-2.72-2.91-2.36l0,0c-0.6,0.37-0.29,2.01,0.71,3.68L121.15,180.16z"/>
						<g>
							<path class="st8" d="M42.07,32.11c0,0,15.31,27.46,17.59,31.46c2.28,4.01,0.7,3.74-1.32,5.1c-2.03,1.36-9.8,6.03-11.59,6.88
								c-1.79,0.86-2.94,2.33-4.81-0.56c-1.89-2.9-21.31-32.44-21.31-32.44L42.07,32.11z"/>
							<path class="st9" d="M44.13,77.19c-0.92,0-1.75-0.62-2.61-1.94c-1.86-2.87-21.12-32.14-21.31-32.44l-0.31-0.47l22.38-10.9
								l0.23,0.41c0.15,0.27,15.34,27.51,17.59,31.45c1.02,1.79,1.35,2.85,1.12,3.65c-0.21,0.76-0.86,1.12-1.62,1.54
								c-0.3,0.17-0.63,0.35-0.98,0.58c-2.04,1.37-9.83,6.05-11.66,6.92c-0.29,0.14-0.56,0.3-0.83,0.45
								C45.47,76.83,44.84,77.19,44.13,77.19z M21.35,42.75c2.51,3.82,19.27,29.3,21,31.96c0.86,1.33,1.42,1.48,1.77,1.48
								c0.45,0,0.94-0.28,1.52-0.61c0.28-0.16,0.58-0.33,0.89-0.48c1.76-0.83,9.56-5.52,11.53-6.85c0.37-0.25,0.73-0.45,1.06-0.63
								c0.66-0.37,1.04-0.59,1.14-0.93c0.14-0.48-0.2-1.43-1.03-2.88c-2.1-3.68-15.44-27.6-17.37-31.05L21.35,42.75z"/>
						</g>
						<path class="st10" d="M42.26,40.84c3.12,5.71,13.55,23.73,15.49,27.17c-0.43,0.33-0.89,0.65-1.34,0.96
							c-2.16-4.02-12.81-21.44-15.94-26.25C41.08,42.09,41.67,41.48,42.26,40.84z"/>
						<path class="st11" d="M20.62,42.55c0,0,19.43,29.54,21.31,32.44c1.88,2.89,3.02,1.43,4.81,0.56
							c1.79-0.85,9.56-5.52,11.59-6.88c2.02-1.36,3.6-1.09,1.32-5.1c-2.28-4-17.59-31.46-17.59-31.46L20.62,42.55z M42.87,45.47
							c3.9-4.85,6.34,2.5,7.34,4.41c1.9,3.65,4.92,8.66,6.66,12.39c1.87,3.96-2.86,5.41-5.9,7.16c-1.34,0.78-2.7,0.54-3.69-0.65
							c-3.84-4.52-5.42-7.42-8.63-12.32C35.85,52.19,40.36,48.59,42.87,45.47z"/>
						<path class="st12" d="M31.56,59.16c-5.44-8.27-10.94-16.62-10.94-16.62l21.44-10.44c0,0,2.34,4.2,5.3,9.53
							C39.46,43.6,34.24,50.74,31.56,59.16z"/>
					</g>
					<g>
						<g>
							<path class="st13" d="M54.68,29.8c0,0-20.75,13.24-24.5,16.39c-3.75,3.15-10.46,4.73-15-1.98
								c-4.55-6.71-9.09-18.36,0.59-22.71c9.67-4.34,23.7-10.67,23.7-10.67c5.73-2.17,11.45-6.71,16.39,0.59
								C60.8,18.75,63.58,24.46,54.68,29.8z"/>
							<path class="st14" d="M14.52,44.66c-1.63-2.41-6.78-10.77-4.85-17.55c0.81-2.84,2.75-4.97,5.77-6.33
								c9.69-4.36,23.69-10.67,23.75-10.69c0.97-0.38,1.93-0.81,2.89-1.24c2.43-1.09,4.93-2.21,7.4-2.21c2.77,0,5.08,1.42,7.04,4.33
								c2.93,4.33,5.47,8.54,4.58,12.55c-0.59,2.6-2.55,4.87-6,6.94c-0.2,0.13-20.74,13.24-24.4,16.33
								c-2.19,1.84-4.94,2.89-7.56,2.89l0,0C20.76,49.69,17.34,48.82,14.52,44.66z M42.71,10.3c-0.97,0.44-1.97,0.9-2.91,1.26
								c0,0-14.03,6.33-23.72,10.67c-2.57,1.16-4.23,2.93-4.89,5.32c-1.4,4.86,1.48,11.56,4.63,16.21c1.94,2.86,4.46,4.35,7.31,4.35
								c2.25,0,4.63-0.93,6.54-2.52c3.76-3.15,23.73-15.92,24.6-16.47c3.07-1.84,4.79-3.78,5.27-5.94
								c0.75-3.41-1.73-7.45-4.33-11.32c-1.67-2.47-3.5-3.64-5.74-3.64C47.35,8.23,45.1,9.24,42.71,10.3z"/>
						</g>
						<g>
							<path class="st13" d="M9.51,42.05c4.08,6.8,11.5,9.83,16.6,6.78c5.11-3.05,5.95-11.04,1.88-17.83
								c-4.08-6.79-11.52-9.83-16.61-6.79C6.28,27.27,5.44,35.26,9.51,42.05z"/>
							<path class="st14" d="M8.84,42.45c-4.29-7.17-3.33-15.64,2.14-18.92c1.44-0.86,3.06-1.3,4.82-1.3
								c4.78,0,9.82,3.27,12.86,8.37c2.07,3.42,2.99,7.26,2.62,10.8c-0.39,3.63-2.08,6.51-4.76,8.11c-1.44,0.86-3.07,1.3-4.83,1.3
								C16.91,50.8,11.87,47.53,8.84,42.45z M11.79,24.89c-4.72,2.82-5.44,10.35-1.59,16.75c2.74,4.61,7.27,7.6,11.49,7.6
								c1.48,0,2.83-0.38,4.02-1.08c2.26-1.34,3.67-3.8,4-6.92c0.34-3.21-0.52-6.69-2.41-9.83c-2.75-4.61-7.26-7.59-11.5-7.59
								C14.33,23.81,12.98,24.17,11.79,24.89z"/>
						</g>
						<path class="st15" d="M7.5,27.33c-0.01,0.3-0.3,1.27-0.23,1.57c-0.34,1.25-0.66,3.18-0.4,4.46
							c1.34,6.64,11.8,14.43,17.36,6.29c2.24-3.25,1.23-8.05-1.04-11.05c-3.22-4.29-8.11-5.68-13.28-4.29c0,0-0.03,0-0.05,0.02
							c0.35-0.29,0.72-0.56,1.12-0.81c0.38-0.23,0.79-0.43,1.21-0.6c0.89-0.84,1.97-1.58,3.25-2.14c2.55-1.15,5.43-2.44,8.25-3.71
							c-0.5,0.43-2.29,1.32-2.89,1.67c-3.48,1.92-3.18,2.84-0.59,3.44c4.26,1,7.02,5.52,9.38,4.55c4.51-1.84,10.41-4.95,14.71-7.21
							c5.19-2.72,10.46-5.83,10.37-10.72c0.65,0.6,1.27,1.32,1.84,2.17c2.93,4.33,5.47,8.54,4.58,12.55c-0.59,2.6-2.55,4.87-6,6.94
							c-0.2,0.13-20.74,13.24-24.4,16.33c-0.92,0.79-1.95,1.4-3.03,1.88c-0.37,0.3-0.73,0.58-1.14,0.83
							c-1.44,0.86-3.07,1.3-4.83,1.3c-4.78,0-9.82-3.27-12.85-8.35C5.73,37.27,5.39,31.41,7.5,27.33z"/>
					</g>
					<path class="st15" d="M29.58,33.63c-1.76-1.77-4.79-2.69-7.24-1.97c-3.62,1.07-5.37,2.99-6.03,6.74
						c-0.69,3.9-3.53,5.13-6.71,5.2c-0.26-0.38-0.53-0.74-0.77-1.15c-0.34-0.59-0.64-1.17-0.93-1.76c-0.07-0.15-0.15-0.28-0.22-0.45
						c-0.23-0.52-0.44-1.06-0.62-1.61c-0.02-0.06-0.04-0.13-0.06-0.19c-0.2-0.61-0.37-1.23-0.49-1.84
						c-0.04-0.11-0.05-0.22-0.07-0.31c-0.11-0.58-0.18-1.14-0.23-1.71c-0.01-0.05-0.02-0.09-0.03-0.13
						c-0.04-0.65-0.06-1.28-0.03-1.91c0,0,0-0.01,0-0.02c0.03-0.62,0.1-1.23,0.2-1.82c0.01-0.02,0.01-0.02,0.01-0.03
						c0.21-1.21,0.59-2.33,1.12-3.35l0,0c0.81-1.57,1.96-2.89,3.48-3.8c0.38-0.23,0.79-0.43,1.21-0.6l0,0
						c0.43-0.41,0.92-0.79,1.44-1.15c0.03-0.01,0.08-0.05,0.12-0.06c0.51-0.36,1.08-0.65,1.69-0.93c1.68-0.77,3.52-1.58,5.37-2.42
						c0.96-0.44,1.92-0.86,2.88-1.29l0,0c7.87-3.53,15.46-6.96,15.49-6.97c0.97-0.38,1.93-0.81,2.89-1.24
						c2.43-1.09,4.93-2.21,7.4-2.21c2.35,0,4.36,1.03,6.1,3.11c0.02,0.02,0.04,0.04,0.07,0.06c0.3,0.37,0.6,0.75,0.87,1.17
						c2.93,4.33,5.47,8.54,4.58,12.55c-0.59,2.6-2.55,4.87-6,6.94c-0.17,0.09-13.7,8.75-20.77,13.66
						C31.7,42.01,31.8,35.85,29.58,33.63z"/>
				</g>
			</g>
		</g>
	</g>
	<g>
		<g>
			<path class="st8" d="M378.14,228.62l-13.81-34.04c0,0-4.35-10.81-20.88-10.52H171.33c0,0-11.02,0.29-12.64,7.47
				c-1.62,7.19-3.24,36.22-3.24,36.22L378.14,228.62z"/>
			<path class="st16" d="M378.14,229.12C378.14,229.12,378.14,229.12,378.14,229.12l-222.7-0.86c-0.14,0-0.27-0.06-0.36-0.16
				c-0.09-0.1-0.14-0.23-0.14-0.37c0.07-1.19,1.64-29.16,3.25-36.31c1.69-7.48,12.65-7.85,13.12-7.86h172.14
				c0.21,0,0.43-0.01,0.64-0.01c8.42,0,13.59,2.93,16.44,5.39c3.12,2.68,4.21,5.34,4.25,5.46l13.81,34.04
				c0.06,0.15,0.04,0.33-0.05,0.47C378.47,229.04,378.31,229.12,378.14,229.12z M155.97,227.26l221.43,0.86l-13.53-33.35
				c-0.01-0.03-1.07-2.59-4.02-5.11c-2.79-2.39-7.93-5.23-16.38-5.1H171.33c-0.09,0-10.64,0.36-12.16,7.08
				C157.7,198.18,156.2,223.3,155.97,227.26z"/>
		</g>
		<path class="st17" d="M156.89,206.83c-0.84,10.08-1.45,20.93-1.45,20.93l222.7,0.86l-8.84-21.79H156.89z"/>
		<path class="st18" d="M366.86,230.91c-0.03-0.06-0.24,0.08-0.2,0.16c0.32,0.69,0.47,1.35,0.18,2.08c-0.2,0.5-0.64,0.9-1.02,1.28
			c-0.13,0.13,0.05,0.13,0.13,0.04C367.04,233.39,367.56,232.4,366.86,230.91z"/>
		<g>
			<path class="st8" d="M402.92,259.74l-16.36-37.56c0,0-5.15-11.93-24.74-11.61H157.85c0,0-13.06,0.32-14.98,8.25
				c-1.92,7.93-3.84,39.97-3.84,39.97L402.92,259.74z"/>
			<path class="st8" d="M402.92,260.24C402.92,260.24,402.92,260.24,402.92,260.24l-263.9-0.95c-0.14,0-0.27-0.06-0.36-0.16
				c-0.09-0.1-0.14-0.23-0.13-0.37c0.08-1.31,1.95-32.18,3.85-40.06c1.99-8.21,14.91-8.62,15.46-8.63h203.99
				c0.25,0,0.51-0.01,0.77-0.01c9.94,0,16.04,3.22,19.41,5.92c3.68,2.95,4.97,5.88,5.03,6l16.36,37.56
				c0.07,0.15,0.05,0.33-0.04,0.47C403.25,260.15,403.09,260.24,402.92,260.24z M139.56,258.29l262.6,0.95l-16.05-36.86
				c-0.01-0.03-1.27-2.86-4.78-5.66c-3.33-2.65-9.46-5.81-19.49-5.65H157.85c-0.11,0-12.69,0.4-14.5,7.87
				C141.6,226.17,139.82,254.09,139.56,258.29z"/>
		</g>
		<g>
			<path class="st8" d="M233.49,236.9c-0.9,2.96-4.75,17.74-5.63,22.21l96.58,0.35c-1.57-7.56-3.44-15.06-5.33-22.55H233.49z"/>
			<path class="st16" d="M324.44,259.96C324.44,259.96,324.44,259.96,324.44,259.96l-96.58-0.35c-0.15,0-0.29-0.07-0.38-0.18
				c-0.09-0.12-0.13-0.27-0.1-0.41c0.89-4.49,4.72-19.23,5.65-22.26c0.06-0.21,0.26-0.35,0.48-0.35h85.61
				c0.23,0,0.43,0.16,0.49,0.38c2.02,7.99,3.81,15.2,5.34,22.58c0.03,0.15-0.01,0.3-0.1,0.42
				C324.73,259.89,324.59,259.96,324.44,259.96z M228.47,258.61l95.35,0.34c-1.47-7.03-3.19-13.94-5.11-21.55h-84.85
				C232.83,240.91,229.5,253.74,228.47,258.61z"/>
		</g>
		<g>
			<rect x="137.08" y="257.15" class="st19" width="271.6" height="8.16"/>
			<path class="st8" d="M409.18,265.81h-272.6v-9.16h272.6V265.81z M137.58,264.81h270.6v-7.16h-270.6V264.81z"/>
		</g>
		<g>
			<g>
				<g>
					<path class="st0" d="M225.41,251.47c0,18.14-14.71,32.84-32.84,32.84c-18.14,0-32.84-14.7-32.84-32.84
						c0-18.14,14.7-32.85,32.84-32.85C210.7,218.62,225.41,233.33,225.41,251.47z"/>
					<path class="st1" d="M192.56,284.81c-18.39,0-33.34-14.96-33.34-33.34c0-18.39,14.96-33.35,33.34-33.35
						c18.39,0,33.34,14.96,33.34,33.35C225.91,269.85,210.95,284.81,192.56,284.81z M192.56,219.12
						c-17.83,0-32.34,14.51-32.34,32.35c0,17.83,14.51,32.34,32.34,32.34c17.84,0,32.34-14.51,32.34-32.34
						C224.91,233.63,210.4,219.12,192.56,219.12z"/>
				</g>
				<g>
					<path class="st20" d="M193.91,220.35c8.63,0,16.47,3.41,22.24,8.95c-5.85-6.09-14.07-9.89-23.18-9.89
						c-17.75,0-32.13,14.39-32.13,32.13c0,9.11,3.8,17.33,9.89,23.18c-5.54-5.77-8.95-13.6-8.95-22.24
						C161.78,234.74,176.16,220.35,193.91,220.35z"/>
				</g>
				<path class="st0" d="M221.01,251.35c0,15.71-12.74,28.45-28.45,28.45c-15.71,0-28.45-12.74-28.45-28.45s12.74-28.45,28.45-28.45
					C208.28,222.9,221.01,235.64,221.01,251.35z"/>
				<g>
					<path class="st21" d="M218.49,251.46c0,14.32-11.61,25.93-25.93,25.93c-14.32,0-25.93-11.61-25.93-25.93
						c0-14.32,11.61-25.93,25.93-25.93C206.88,225.54,218.49,237.14,218.49,251.46z"/>
					<path class="st1" d="M192.56,277.89c-14.57,0-26.43-11.86-26.43-26.43c0-14.57,11.86-26.43,26.43-26.43
						c14.57,0,26.43,11.85,26.43,26.43C218.99,266.04,207.14,277.89,192.56,277.89z M192.56,226.04
						c-14.02,0-25.43,11.41-25.43,25.43c0,14.02,11.41,25.43,25.43,25.43s25.43-11.41,25.43-25.43
						C217.99,237.44,206.58,226.04,192.56,226.04z"/>
				</g>
				<g>
					<g>
						<g>
							<g>
								<path d="M194.77,230.08c0,1.22-0.99,2.21-2.21,2.21c-1.22,0-2.21-0.99-2.21-2.21c0-1.22,0.99-2.21,2.21-2.21
									C193.78,227.87,194.77,228.86,194.77,230.08z"/>
								<path class="st1" d="M192.56,232.79c-1.49,0-2.71-1.21-2.71-2.71c0-1.49,1.21-2.71,2.71-2.71c1.49,0,2.71,1.21,2.71,2.71
									C195.27,231.58,194.06,232.79,192.56,232.79z M192.56,228.37c-0.94,0-1.71,0.77-1.71,1.71c0,0.94,0.77,1.71,1.71,1.71
									c0.94,0,1.71-0.77,1.71-1.71C194.27,229.14,193.51,228.37,192.56,228.37z"/>
							</g>
							<path class="st18" d="M192.74,229.69c0,0.39-0.32,0.71-0.71,0.71c-0.39,0-0.71-0.32-0.71-0.71c0-0.39,0.32-0.71,0.71-0.71
								C192.43,228.98,192.74,229.3,192.74,229.69z"/>
						</g>
						<g>
							<g>
								<path d="M194.77,272.84c0,1.22-0.99,2.21-2.21,2.21c-1.22,0-2.21-0.99-2.21-2.21c0-1.22,0.99-2.21,2.21-2.21
									C193.78,270.64,194.77,271.63,194.77,272.84z"/>
								<path class="st1" d="M192.56,275.55c-1.49,0-2.71-1.21-2.71-2.71c0-1.49,1.21-2.71,2.71-2.71c1.49,0,2.71,1.21,2.71,2.71
									C195.27,274.34,194.06,275.55,192.56,275.55z M192.56,271.14c-0.94,0-1.71,0.77-1.71,1.71c0,0.94,0.77,1.71,1.71,1.71
									c0.94,0,1.71-0.77,1.71-1.71C194.27,271.9,193.51,271.14,192.56,271.14z"/>
							</g>
							<path class="st18" d="M192.74,272.45c0,0.39-0.32,0.71-0.71,0.71c-0.39,0-0.71-0.32-0.71-0.71c0-0.39,0.32-0.71,0.71-0.71
								C192.43,271.74,192.74,272.06,192.74,272.45z"/>
						</g>
					</g>
					<g>
						<g>
							<g>
								<path d="M175.76,251.47c0,1.22-0.99,2.21-2.21,2.21c-1.22,0-2.21-0.99-2.21-2.21c0-1.22,0.99-2.21,2.21-2.21
									C174.77,249.25,175.76,250.25,175.76,251.47z"/>
								<path class="st1" d="M173.55,254.17c-1.49,0-2.71-1.21-2.71-2.71c0-1.5,1.22-2.71,2.71-2.71c1.49,0,2.71,1.22,2.71,2.71
									C176.26,252.96,175.04,254.17,173.55,254.17z M173.55,249.75c-0.94,0-1.71,0.77-1.71,1.71c0,0.94,0.77,1.71,1.71,1.71
									c0.94,0,1.71-0.77,1.71-1.71C175.26,250.52,174.49,249.75,173.55,249.75z"/>
							</g>
							<path class="st18" d="M173.73,251.07c0,0.39-0.32,0.71-0.71,0.71s-0.71-0.32-0.71-0.71c0-0.39,0.32-0.71,0.71-0.71
								S173.73,250.68,173.73,251.07z"/>
						</g>
						<g>
							<g>
								<path d="M213.79,251.47c0,1.22-0.99,2.21-2.21,2.21c-1.22,0-2.21-0.99-2.21-2.21c0-1.22,0.99-2.21,2.21-2.21
									C212.8,249.25,213.79,250.25,213.79,251.47z"/>
								<path class="st1" d="M211.58,254.17c-1.49,0-2.71-1.21-2.71-2.71c0-1.5,1.21-2.71,2.71-2.71c1.49,0,2.71,1.22,2.71,2.71
									C214.29,252.96,213.07,254.17,211.58,254.17z M211.58,249.75c-0.94,0-1.71,0.77-1.71,1.71c0,0.94,0.77,1.71,1.71,1.71
									c0.94,0,1.71-0.77,1.71-1.71C213.29,250.52,212.52,249.75,211.58,249.75z"/>
							</g>
							<path class="st18" d="M211.76,251.07c0,0.39-0.32,0.71-0.71,0.71c-0.39,0-0.71-0.32-0.71-0.71c0-0.39,0.32-0.71,0.71-0.71
								C211.44,250.36,211.76,250.68,211.76,251.07z"/>
						</g>
					</g>
				</g>
			</g>
			<g>
				<path class="st21" d="M207.04,251.47c0,7.99-6.48,14.47-14.48,14.47s-14.48-6.48-14.48-14.47c0-8,6.48-14.48,14.48-14.48
					S207.04,243.47,207.04,251.47z"/>
				<path class="st1" d="M192.56,266.44c-8.26,0-14.98-6.72-14.98-14.97c0-8.26,6.72-14.98,14.98-14.98s14.98,6.72,14.98,14.98
					C207.54,259.72,200.82,266.44,192.56,266.44z M192.56,237.49c-7.71,0-13.98,6.27-13.98,13.98c0,7.71,6.27,13.97,13.98,13.97
					c7.71,0,13.98-6.27,13.98-13.97C206.54,243.76,200.27,237.49,192.56,237.49z"/>
			</g>
			<g>
				<path class="st22" d="M205.82,251.48c0,7.32-5.93,13.25-13.25,13.25c-7.32,0-13.25-5.93-13.25-13.25
					c0-7.32,5.93-13.25,13.25-13.25C199.88,238.23,205.82,244.16,205.82,251.48z"/>
				<path class="st1" d="M192.56,265.23c-7.58,0-13.75-6.17-13.75-13.75c0-7.58,6.17-13.75,13.75-13.75
					c7.58,0,13.75,6.17,13.75,13.75C206.32,259.06,200.15,265.23,192.56,265.23z M192.56,238.73c-7.03,0-12.75,5.72-12.75,12.75
					c0,7.03,5.72,12.75,12.75,12.75c7.03,0,12.75-5.72,12.75-12.75C205.32,244.45,199.6,238.73,192.56,238.73z"/>
			</g>
		</g>
		<g>
			<g>
				<g>
					<path class="st0" d="M391.35,251.47c0,18.14-14.7,32.84-32.84,32.84c-18.14,0-32.84-14.7-32.84-32.84
						c0-18.14,14.7-32.85,32.84-32.85C376.65,218.62,391.35,233.33,391.35,251.47z"/>
					<path class="st1" d="M358.51,284.81c-18.39,0-33.34-14.96-33.34-33.34c0-18.39,14.96-33.35,33.34-33.35
						c18.38,0,33.34,14.96,33.34,33.35C391.85,269.85,376.89,284.81,358.51,284.81z M358.51,219.12
						c-17.83,0-32.34,14.51-32.34,32.35c0,17.83,14.51,32.34,32.34,32.34c17.83,0,32.34-14.51,32.34-32.34
						C390.85,233.63,376.34,219.12,358.51,219.12z"/>
				</g>
				<g>
					<path class="st20" d="M359.85,220.35c8.63,0,16.47,3.41,22.24,8.95c-5.85-6.09-14.07-9.89-23.18-9.89
						c-17.75,0-32.13,14.39-32.13,32.13c0,9.11,3.8,17.33,9.89,23.18c-5.54-5.77-8.95-13.6-8.95-22.24
						C327.72,234.74,342.11,220.35,359.85,220.35z"/>
				</g>
				<path class="st0" d="M386.96,251.35c0,15.71-12.74,28.45-28.45,28.45c-15.71,0-28.45-12.74-28.45-28.45s12.74-28.45,28.45-28.45
					C374.22,222.9,386.96,235.64,386.96,251.35z"/>
				<g>
					<path class="st21" d="M384.44,251.46c0,14.32-11.61,25.93-25.93,25.93c-14.32,0-25.93-11.61-25.93-25.93
						c0-14.32,11.61-25.93,25.93-25.93C372.83,225.54,384.44,237.14,384.44,251.46z"/>
					<path class="st1" d="M358.51,277.89c-14.57,0-26.43-11.86-26.43-26.43c0-14.57,11.86-26.43,26.43-26.43
						c14.57,0,26.43,11.85,26.43,26.43C384.94,266.04,373.08,277.89,358.51,277.89z M358.51,226.04
						c-14.02,0-25.43,11.41-25.43,25.43c0,14.02,11.41,25.43,25.43,25.43c14.02,0,25.43-11.41,25.43-25.43
						C383.94,237.44,372.53,226.04,358.51,226.04z"/>
				</g>
				<g>
					<g>
						<g>
							<g>
								<path d="M360.72,230.08c0,1.22-0.99,2.21-2.21,2.21c-1.22,0-2.21-0.99-2.21-2.21c0-1.22,0.99-2.21,2.21-2.21
									C359.73,227.87,360.72,228.86,360.72,230.08z"/>
								<path class="st1" d="M358.51,232.79c-1.49,0-2.71-1.21-2.71-2.71c0-1.49,1.21-2.71,2.71-2.71c1.49,0,2.71,1.21,2.71,2.71
									C361.22,231.58,360,232.79,358.51,232.79z M358.51,228.37c-0.94,0-1.71,0.77-1.71,1.71c0,0.94,0.77,1.71,1.71,1.71
									c0.94,0,1.71-0.77,1.71-1.71C360.22,229.14,359.45,228.37,358.51,228.37z"/>
							</g>
							<path class="st18" d="M358.69,229.69c0,0.39-0.32,0.71-0.71,0.71c-0.39,0-0.71-0.32-0.71-0.71c0-0.39,0.32-0.71,0.71-0.71
								C358.37,228.98,358.69,229.3,358.69,229.69z"/>
						</g>
						<g>
							<g>
								<path d="M360.72,272.84c0,1.22-0.99,2.21-2.21,2.21c-1.22,0-2.21-0.99-2.21-2.21c0-1.22,0.99-2.21,2.21-2.21
									C359.73,270.64,360.72,271.63,360.72,272.84z"/>
								<path class="st1" d="M358.51,275.55c-1.49,0-2.71-1.21-2.71-2.71c0-1.49,1.21-2.71,2.71-2.71c1.49,0,2.71,1.21,2.71,2.71
									C361.22,274.34,360,275.55,358.51,275.55z M358.51,271.14c-0.94,0-1.71,0.77-1.71,1.71c0,0.94,0.77,1.71,1.71,1.71
									c0.94,0,1.71-0.77,1.71-1.71C360.22,271.9,359.45,271.14,358.51,271.14z"/>
							</g>
							<path class="st18" d="M358.69,272.45c0,0.39-0.32,0.71-0.71,0.71c-0.39,0-0.71-0.32-0.71-0.71c0-0.39,0.32-0.71,0.71-0.71
								C358.37,271.74,358.69,272.06,358.69,272.45z"/>
						</g>
					</g>
					<g>
						<g>
							<g>
								<path d="M341.7,251.47c0,1.22-0.99,2.21-2.21,2.21c-1.22,0-2.21-0.99-2.21-2.21c0-1.22,0.99-2.21,2.21-2.21
									C340.71,249.25,341.7,250.25,341.7,251.47z"/>
								<path class="st1" d="M339.49,254.17c-1.49,0-2.71-1.21-2.71-2.71c0-1.5,1.22-2.71,2.71-2.71c1.49,0,2.71,1.22,2.71,2.71
									C342.2,252.96,340.99,254.17,339.49,254.17z M339.49,249.75c-0.94,0-1.71,0.77-1.71,1.71c0,0.94,0.77,1.71,1.71,1.71
									s1.71-0.77,1.71-1.71C341.2,250.52,340.44,249.75,339.49,249.75z"/>
							</g>
							<path class="st18" d="M339.67,251.07c0,0.39-0.32,0.71-0.71,0.71c-0.39,0-0.71-0.32-0.71-0.71c0-0.39,0.32-0.71,0.71-0.71
								C339.36,250.36,339.67,250.68,339.67,251.07z"/>
						</g>
						<g>
							<g>
								<path d="M379.73,251.47c0,1.22-0.99,2.21-2.21,2.21c-1.22,0-2.21-0.99-2.21-2.21c0-1.22,0.99-2.21,2.21-2.21
									C378.74,249.25,379.73,250.25,379.73,251.47z"/>
								<path class="st1" d="M377.52,254.17c-1.49,0-2.71-1.21-2.71-2.71c0-1.5,1.21-2.71,2.71-2.71c1.49,0,2.71,1.22,2.71,2.71
									C380.23,252.96,379.02,254.17,377.52,254.17z M377.52,249.75c-0.94,0-1.71,0.77-1.71,1.71c0,0.94,0.77,1.71,1.71,1.71
									c0.94,0,1.71-0.77,1.71-1.71C379.23,250.52,378.46,249.75,377.52,249.75z"/>
							</g>
							<path class="st18" d="M377.7,251.07c0,0.39-0.32,0.71-0.71,0.71c-0.39,0-0.71-0.32-0.71-0.71c0-0.39,0.32-0.71,0.71-0.71
								C377.39,250.36,377.7,250.68,377.7,251.07z"/>
						</g>
					</g>
				</g>
			</g>
			<g>
				<path class="st21" d="M372.99,251.47c0,7.99-6.48,14.47-14.48,14.47c-8,0-14.48-6.48-14.48-14.47c0-8,6.48-14.48,14.48-14.48
					C366.5,236.99,372.99,243.47,372.99,251.47z"/>
				<path class="st1" d="M358.51,266.44c-8.26,0-14.98-6.72-14.98-14.97c0-8.26,6.72-14.98,14.98-14.98
					c8.26,0,14.98,6.72,14.98,14.98C373.49,259.72,366.77,266.44,358.51,266.44z M358.51,237.49c-7.71,0-13.98,6.27-13.98,13.98
					c0,7.71,6.27,13.97,13.98,13.97s13.98-6.27,13.98-13.97C372.49,243.76,366.22,237.49,358.51,237.49z"/>
			</g>
			<g>
				<path class="st22" d="M371.76,251.48c0,7.32-5.93,13.25-13.25,13.25c-7.32,0-13.25-5.93-13.25-13.25
					c0-7.32,5.93-13.25,13.25-13.25C365.83,238.23,371.76,244.16,371.76,251.48z"/>
				<path class="st1" d="M358.51,265.23c-7.58,0-13.75-6.17-13.75-13.75c0-7.58,6.17-13.75,13.75-13.75
					c7.58,0,13.75,6.17,13.75,13.75C372.26,259.06,366.09,265.23,358.51,265.23z M358.51,238.73c-7.03,0-12.75,5.72-12.75,12.75
					c0,7.03,5.72,12.75,12.75,12.75c7.03,0,12.75-5.72,12.75-12.75C371.26,244.45,365.54,238.73,358.51,238.73z"/>
			</g>
		</g>
	</g>
	<path class="st8" d="M144.88,221.69c0,0,0.4-8.95,16.31-9.55h204.08c0,0,3.38,0.79,1.99,2.59c-1.39,1.79-24.86-2.98-35.8,11.54
		c0,0-2.98,5.17-6.56,6.17c-3.58,0.99-92.09,0-92.09,0s-8.16,0.6-11.14-4.38c-2.98-4.97-9.35-13.72-31.82-11.93
		c-22.48,1.79-31.23,15.52-32.42,20.49c-1.19,4.97-2.19,4.18-5.17,4.57c-2.98,0.4-5.57,0-5.57,0s-2.98-0.2-2.78-4.18
		C144.09,233.02,144.88,221.69,144.88,221.69z"/>
	<g>
		<path class="st23" d="M232.9,254.49c0,0.42-0.34,0.76-0.76,0.76c-0.42,0-0.76-0.34-0.76-0.76c0-0.42,0.34-0.76,0.76-0.76
			C232.56,253.73,232.9,254.07,232.9,254.49z"/>
		<path class="st23" d="M234.4,249.39c0,0.42-0.34,0.76-0.76,0.76c-0.42,0-0.76-0.34-0.76-0.76c0-0.42,0.34-0.76,0.76-0.76
			C234.06,248.62,234.4,248.97,234.4,249.39z"/>
		<path class="st23" d="M235.65,244.29c0,0.42-0.34,0.76-0.76,0.76c-0.42,0-0.76-0.34-0.76-0.76c0-0.42,0.34-0.76,0.76-0.76
			C235.31,243.53,235.65,243.87,235.65,244.29z"/>
		<path class="st23" d="M236.94,239.19c0,0.42-0.34,0.76-0.76,0.76c-0.42,0-0.76-0.34-0.76-0.76c0-0.42,0.34-0.76,0.76-0.76
			C236.6,238.42,236.94,238.77,236.94,239.19z"/>
	</g>
	<g>
		<path class="st23" d="M319.67,254.49c0,0.42,0.34,0.76,0.76,0.76c0.42,0,0.76-0.34,0.76-0.76c0-0.42-0.34-0.76-0.76-0.76
			C320.01,253.73,319.67,254.07,319.67,254.49z"/>
		<path class="st23" d="M318.16,249.39c0,0.42,0.34,0.76,0.76,0.76c0.42,0,0.76-0.34,0.76-0.76c0-0.42-0.34-0.76-0.76-0.76
			C318.5,248.62,318.16,248.97,318.16,249.39z"/>
		<path class="st23" d="M316.92,244.29c0,0.42,0.34,0.76,0.76,0.76c0.42,0,0.76-0.34,0.76-0.76c0-0.42-0.34-0.76-0.76-0.76
			C317.26,243.53,316.92,243.87,316.92,244.29z"/>
		<path class="st23" d="M315.62,239.19c0,0.42,0.34,0.76,0.76,0.76c0.42,0,0.76-0.34,0.76-0.76c0-0.42-0.34-0.76-0.76-0.76
			C315.96,238.42,315.62,238.77,315.62,239.19z"/>
	</g>
	<path class="st24" d="M291.08,142.47c0,0,5.67,0.15,12.23,3.13c6.56,2.98,30.58,17.01,39.23,26.41
		C342.55,172.01,312.26,149.93,291.08,142.47z"/>
	<path class="st25" d="M338.52,190.06c0,1.48-1.2,2.68-2.69,2.68c-1.48,0-2.68-1.2-2.68-2.68c0-1.48,1.2-2.69,2.68-2.69
		C337.32,187.37,338.52,188.58,338.52,190.06z"/>
	<path class="st25" d="M347.77,189.91c0,1.24-1,2.24-2.24,2.24c-1.24,0-2.24-1-2.24-2.24c0-1.23,1-2.24,2.24-2.24
		C346.77,187.67,347.77,188.67,347.77,189.91z"/>
	<path class="st8" d="M233.49,195.73c0,4.78-4.2,8.65-9.37,8.65h-52.25c-5.18,0-9.37-3.87-9.37-8.65l0,0c0-4.78,4.2-8.65,9.37-8.65
		h52.25C229.29,187.08,233.49,190.95,233.49,195.73L233.49,195.73z"/>
	<g>
		<path class="st26" d="M195.79,188.47h-1.75c0.01,2.61,0.01,7.05-0.02,14.62h1.75C195.79,197.73,195.8,192.02,195.79,188.47z"/>
		<path class="st26" d="M204.62,188.47h-1.75c0.01,2.61,0.01,7.05-0.02,14.62h1.75C204.61,197.73,204.62,192.02,204.62,188.47z"/>
		<path class="st26" d="M189.91,188.47h-1.75c0.01,2.61,0.01,7.05-0.02,14.62h1.75C189.91,197.73,189.92,192.02,189.91,188.47z"/>
		<path class="st26" d="M192.85,188.47h-1.75c0.01,2.61,0.01,7.05-0.02,14.62h1.75C192.85,197.73,192.86,192.02,192.85,188.47z"/>
		<path class="st26" d="M166.39,190.3c-1.52,1.34-2.48,3.29-2.48,5.48c0,2.18,0.96,4.13,2.47,5.46
			C166.38,197.31,166.39,193.34,166.39,190.3z"/>
		<path class="st26" d="M201.67,188.47h-1.75c0.01,2.61,0.01,7.05-0.02,14.62h1.75C201.67,197.73,201.68,192.02,201.67,188.47z"/>
		<path class="st26" d="M198.73,188.47h-1.75c0.01,2.61,0.01,7.05-0.02,14.62h1.75C198.73,197.73,198.74,192.02,198.73,188.47z"/>
		<path class="st26" d="M172.26,188.47h-1.05c-0.24,0-0.47,0.01-0.7,0.04c0.01,2.61,0.01,7.03-0.02,14.55
			c0.24,0.02,0.47,0.04,0.72,0.04h1.03C172.26,197.73,172.27,192.02,172.26,188.47z"/>
		<path class="st26" d="M175.21,188.47h-1.75c0.01,2.61,0.01,7.05-0.02,14.62h1.75C175.2,197.73,175.21,192.02,175.21,188.47z"/>
		<path class="st26" d="M178.15,188.47h-1.75c0.01,2.61,0.01,7.05-0.02,14.62h1.75C178.14,197.73,178.16,192.02,178.15,188.47z"/>
		<path class="st26" d="M207.56,188.47h-1.75c0.01,2.61,0.01,7.05-0.02,14.62h1.75C207.55,197.73,207.56,192.02,207.56,188.47z"/>
		<path class="st26" d="M186.97,188.47h-1.75c0.01,2.61,0.01,7.05-0.02,14.62h1.75C186.97,197.73,186.98,192.02,186.97,188.47z"/>
		<path class="st26" d="M181.09,188.47h-1.75c0.01,2.61,0.01,7.05-0.02,14.62h1.75C181.09,197.73,181.1,192.02,181.09,188.47z"/>
		<path class="st26" d="M184.03,188.47h-1.75c0.01,2.61,0.01,7.05-0.02,14.62h1.75C184.03,197.73,184.04,192.02,184.03,188.47z"/>
		<path class="st26" d="M213.44,188.47h-1.75c0.01,2.61,0.01,7.05-0.02,14.62h1.75C213.44,197.73,213.45,192.02,213.44,188.47z"/>
		<path class="st26" d="M228.15,189.47c-0.54-0.32-1.13-0.56-1.75-0.73c0.01,2.61,0.01,6.92-0.02,14.09
			c0.62-0.17,1.2-0.41,1.75-0.73C228.14,197.52,228.15,192.8,228.15,189.47z"/>
		<path class="st26" d="M219.32,188.47h-1.75c0.01,2.61,0.01,7.05-0.02,14.62h1.75C219.32,197.73,219.33,192.02,219.32,188.47z"/>
		<path class="st26" d="M216.38,188.47h-1.75c0.01,2.61,0.01,7.05-0.02,14.62h1.75C216.38,197.73,216.39,192.02,216.38,188.47z"/>
		<path class="st26" d="M169.32,188.72c-0.62,0.17-1.21,0.41-1.75,0.72c0.01,2.56,0,6.52-0.02,12.66c0.54,0.31,1.13,0.56,1.74,0.72
			C169.32,197.67,169.33,192.23,169.32,188.72z"/>
		<path class="st26" d="M222.26,188.47h-1.75c0.01,2.61,0.01,7.05-0.02,14.62h1.75C222.26,197.73,222.27,192.02,222.26,188.47z"/>
		<path class="st26" d="M225.2,188.5c-0.24-0.02-0.49-0.04-0.73-0.04h-1.02c0.01,2.61,0.01,7.05-0.02,14.62h1.04
			c0.24,0,0.48-0.01,0.71-0.04C225.2,197.73,225.21,192.05,225.2,188.5z"/>
		<path class="st26" d="M231.78,195.78c0-2.16-0.95-4.1-2.44-5.44c0,2.42,0,5.9-0.02,10.9
			C230.83,199.89,231.78,197.95,231.78,195.78z"/>
		<path class="st26" d="M210.5,188.47h-1.75c0.01,2.61,0.01,7.05-0.02,14.62h1.75C210.5,197.73,210.51,192.02,210.5,188.47z"/>
	</g>
	<path class="st27" d="M145.33,231.83l0.9-7.61c0,0,0.75-10.44,17.3-10.89h42.52l-43.11,1.94
		C162.93,215.27,147.57,215.87,145.33,231.83z"/>
</g>
</svg>
