<svg id="Layer_1" data-name="Layer 1" xmlns="http://www.w3.org/2000/svg" viewBox="0 0 213.77 330.69"><defs><style>.cls-1{fill:#b77d42;}.cls-2{fill:#ea526f;}.cls-3{fill:#fedc00;}.cls-4{fill:#fff;}.cls-5{fill:#8ac14d;}.cls-6{fill:#4bb048;}</style></defs><title>lemonade_stand</title><rect class="cls-1" y="165.11" width="213.77" height="23.57"/><rect class="cls-2" x="252.22" y="198.6" width="142.01" height="193.02" transform="translate(401.96 -63.55) rotate(90)"/><rect class="cls-1" x="338.02" y="124.48" width="142.01" height="10.1" transform="translate(322.18 -314.92) rotate(90)"/><rect class="cls-1" x="166.5" y="124.48" width="142.01" height="10.1" transform="translate(150.66 -143.4) rotate(90)"/><path class="cls-2" d="M294.88,51.93h44.89a11.88,11.88,0,0,1,11.88,11.88v0a11.88,11.88,0,0,1-11.88,11.88H294.88a0,0,0,0,1,0,0V51.93A0,0,0,0,1,294.88,51.93Z" transform="translate(170.69 -294.88) rotate(90)"/><path class="cls-3" d="M271.13,51.93H316A11.88,11.88,0,0,1,327.9,63.81v0A11.88,11.88,0,0,1,316,75.68H271.13a0,0,0,0,1,0,0V51.93A0,0,0,0,1,271.13,51.93Z" transform="translate(146.94 -271.13) rotate(90)"/><path class="cls-2" d="M247.37,51.93h44.89a11.88,11.88,0,0,1,11.88,11.88v0a11.88,11.88,0,0,1-11.88,11.88H247.37a0,0,0,0,1,0,0V51.93a0,0,0,0,1,0,0Z" transform="translate(123.19 -247.37) rotate(90)"/><path class="cls-3" d="M223.62,51.93h44.89a11.88,11.88,0,0,1,11.88,11.88v0a11.88,11.88,0,0,1-11.88,11.88H223.62a0,0,0,0,1,0,0V51.93A0,0,0,0,1,223.62,51.93Z" transform="translate(99.44 -223.62) rotate(90)"/><path class="cls-2" d="M199.87,51.93h44.89a11.88,11.88,0,0,1,11.88,11.88v0a11.88,11.88,0,0,1-11.88,11.88H199.87a0,0,0,0,1,0,0V51.93A0,0,0,0,1,199.87,51.93Z" transform="translate(75.68 -199.87) rotate(90)"/><path class="cls-3" d="M318.63,51.93h44.89A11.88,11.88,0,0,1,375.4,63.81v0a11.88,11.88,0,0,1-11.88,11.88H318.63a0,0,0,0,1,0,0V51.93A0,0,0,0,1,318.63,51.93Z" transform="translate(194.45 -318.63) rotate(90)"/><path class="cls-2" d="M342.39,51.93h44.89a11.88,11.88,0,0,1,11.88,11.88v0a11.88,11.88,0,0,1-11.88,11.88H342.39a0,0,0,0,1,0,0V51.93A0,0,0,0,1,342.39,51.93Z" transform="translate(218.2 -342.39) rotate(90)"/><path class="cls-3" d="M366.14,51.93H411a11.88,11.88,0,0,1,11.88,11.88v0A11.88,11.88,0,0,1,411,75.68H366.14a0,0,0,0,1,0,0V51.93A0,0,0,0,1,366.14,51.93Z" transform="translate(241.95 -366.14) rotate(90)"/><path class="cls-2" d="M389.89,51.93h44.89a11.88,11.88,0,0,1,11.88,11.88v0a11.88,11.88,0,0,1-11.88,11.88H389.89a0,0,0,0,1,0,0V51.93A0,0,0,0,1,389.89,51.93Z" transform="translate(265.71 -389.89) rotate(90)"/><path class="cls-4" d="M398.84,272.25V272a1.48,1.48,0,0,0,0-.21,1.43,1.43,0,0,0,0-.22,1.7,1.7,0,0,0,0-.22,1.52,1.52,0,0,0-.06-.2c0-.08-.05-.15-.08-.22a1.51,1.51,0,0,0-.09-.18,2.26,2.26,0,0,0-.11-.22s0,0,0,0a1.33,1.33,0,0,0-.14-.19l-.07-.11a2.76,2.76,0,0,0-.29-.3l-.06-.06-.27-.21,0,0c-.39-.27-9.61-6.45-20.76-6.45a27.18,27.18,0,0,0-8.36,1.3c6.37-12.13,1.94-26.29,1.75-26.89l-.06-.15-.09-.22a1.28,1.28,0,0,0-.11-.2l-.11-.19-.15-.19a.64.64,0,0,0-.1-.13l0,0a2.93,2.93,0,0,0-.42-.37L369,236a3.18,3.18,0,0,0-.4-.23l-.12-.06a3.27,3.27,0,0,0-.53-.17h-.09l-.33-.05h-.23a3.73,3.73,0,0,0-.47,0l-.14,0a1.68,1.68,0,0,0-.32.09l-.08,0c-.59.21-14.62,5.34-20.34,17.88a27.31,27.31,0,0,0-1.57,17.69c-7.32-5.82-17.28-9.15-28.12-9.15a57.32,57.32,0,0,0-19.13,3.35c-20.53,7.27-34.28,24.54-33.9,42.32a11.21,11.21,0,0,0,6.72,18.95c7.27,9.35,19.81,14.9,33.85,14.9h0a57.28,57.28,0,0,0,19.13-3.35c20.34-7.21,34.08-24.31,33.91-41.95a12.22,12.22,0,0,0,3.48-10.26,27.26,27.26,0,0,0,11.38,2.56c15.68,0,26.14-14.13,26.58-14.73a1,1,0,0,0,.08-.14,1.48,1.48,0,0,0,.13-.21,1.24,1.24,0,0,0,.1-.2,1.67,1.67,0,0,0,.08-.2,2.17,2.17,0,0,0,.07-.24.88.88,0,0,0,0-.15v0a2.17,2.17,0,0,0,0-.25A1.36,1.36,0,0,0,398.84,272.25Z" transform="translate(-216.38 -35.42)"/><path class="cls-3" d="M357,285.21c-1.2-3.39-4.67-5.46-8.73-5.64-9.64-13.25-30.22-18.35-50.15-11.29s-32.85,24.17-31.85,40.61c-2.7,2.65-3.89,6.22-2.75,9.43s4.3,5.23,8.07,5.59c9.57,13.41,30.28,18.61,50.31,11.51s32.71-24,31.87-40.34C356.81,292.39,358.21,288.59,357,285.21Z" transform="translate(-216.38 -35.42)"/><path class="cls-5" d="M367.29,238.5s-28.91,10.33-18.38,37.27Z" transform="translate(-216.38 -35.42)"/><path class="cls-6" d="M367.29,238.5s9.4,29.23-18.38,37.27Z" transform="translate(-216.38 -35.42)"/><path class="cls-5" d="M395.84,272.11s-25.4-17.26-40.95,7.13Z" transform="translate(-216.38 -35.42)"/><path class="cls-6" d="M395.84,272.11s-18.07,24.83-40.95,7.13Z" transform="translate(-216.38 -35.42)"/></svg>