<?xml version="1.0" encoding="utf-8"?>
<!-- Generator: Adobe Illustrator 24.0.1, SVG Export Plug-In . SVG Version: 6.00 Build 0)  -->
<svg version="1.1" id="Layer_1" xmlns="http://www.w3.org/2000/svg" xmlns:xlink="http://www.w3.org/1999/xlink" x="0px" y="0px"
	 viewBox="0 0 863.77 185.05" style="enable-background:new 0 0 863.77 185.05;" xml:space="preserve">
<style type="text/css">
	.st0{fill:#EA526F;}
</style>
<g>
	<path class="st0" d="M23.49,95.37H0V66.9h23.49V46.5C23.49,21.35,29.89,0,68.56,0c7.12,0,14.23,0.47,20.88,2.13l-1.66,30.13
		c-4.03-1.42-7.35-2.37-11.63-2.37c-11.39,0-17.08,3.56-17.08,18.74V66.9h26.33v28.47H59.07v86.83H23.49V95.37z"/>
	<path class="st0" d="M209.96,182.2h-34.16v-15.66h-0.47c-4.74,9.02-16.37,18.5-33.69,18.5c-36.06,0-42.7-23.72-42.7-54.57V66.9
		h35.59v56.46c0,13.29,0.24,30.37,18.5,30.37c18.5,0,21.35-14.47,21.35-29.42V66.9h35.59V182.2z"/>
	<path class="st0" d="M235.1,66.9h34.16v15.66h0.47c4.75-9.01,16.37-18.5,33.69-18.5c36.06,0,42.7,23.72,42.7,54.57v63.58h-35.59
		v-56.46c0-13.29-0.24-30.37-18.5-30.37c-18.5,0-21.35,14.47-21.35,29.42v57.41H235.1V66.9z"/>
	<path class="st0" d="M443.63,167.73h-0.47c-7.83,12.34-22.06,17.32-36.54,17.32c-21.59,0-41.04-12.34-41.04-35.59
		c0-39.86,48.4-40.57,78.05-40.57c0-12.57-10.44-20.64-22.78-20.64c-11.63,0-21.35,5.22-28.94,13.76l-18.98-19.45
		c13.05-12.34,32.03-18.5,50.77-18.5c41.52,0,52.67,21.12,52.67,59.55v58.6h-32.74V167.73z M434.85,131.67
		c-10.91,0-35.11,0.95-35.11,16.61c0,8.54,9.02,12.57,16.84,12.57c14,0,27.05-7.35,27.05-21.59v-7.59H434.85z"/>
	<path class="st0" d="M498.66,66.9h34.16v15.66h0.47c4.74-9.01,16.37-18.5,33.69-18.5c36.06,0,42.7,23.72,42.7,54.57v63.58h-35.59
		v-56.46c0-13.29-0.24-30.37-18.5-30.37c-18.5,0-21.35,14.47-21.35,29.42v57.41h-35.59V66.9z"/>
	<path class="st0" d="M712.89,104.15c-3.56-4.98-10.2-8.78-17.56-8.78c-17.79,0-28.47,11.86-28.47,29.18
		c0,17.32,10.68,29.18,28.47,29.18c7.83,0,13.52-4.03,17.56-8.78l23.49,24.67c-11.15,11.39-27.52,15.42-41.04,15.42
		c-35.59,0-64.06-23.72-64.06-60.5c0-36.77,28.47-60.5,64.06-60.5c13.52,0,29.89,4.03,41.04,15.42L712.89,104.15z"/>
	<path class="st0" d="M858.31,162.27c-11.39,14.47-30.13,22.78-48.63,22.78c-35.59,0-64.06-23.72-64.06-60.5
		c0-36.77,28.47-60.5,64.06-60.5c33.21,0,54.09,23.72,54.09,60.5v11.15h-82.56c2.85,13.52,13.05,22.3,26.81,22.3
		c11.63,0,19.45-5.93,25.39-14L858.31,162.27z M828.18,111.5c0.24-11.86-9.02-21.83-21.83-21.83c-15.66,0-24.2,10.68-25.15,21.83
		H828.18z"/>
</g>
</svg>
