<?xml version="1.0" encoding="utf-8"?>
<!-- Generator: Adobe Illustrator 24.0.1, SVG Export Plug-In . SVG Version: 6.00 Build 0)  -->
<svg version="1.1" id="Layer_1" xmlns="http://www.w3.org/2000/svg" xmlns:xlink="http://www.w3.org/1999/xlink" x="0px" y="0px"
	 viewBox="0 0 863.77 601.76" style="enable-background:new 0 0 863.77 601.76;" xml:space="preserve">
<style type="text/css">
	.st0{fill:none;stroke:#000000;stroke-width:14.1732;stroke-linecap:round;stroke-miterlimit:10;}
	.st1{fill:none;stroke:#000000;stroke-width:14.1732;stroke-miterlimit:10;}
	.st2{fill:#EA526F;}
</style>
<path class="st0" d="M253.56,454.39c0,0,10.12-226.65,0-273.2c-10.12-46.54-30.36-163.92,42.5-161.89c0,0,57.94-18.56,55.35,125.61
	c-0.34,18.85,3.44,37.63,11.74,54.56c11,22.45,42.56,36.04,64.2-2.09c8.63-15.21,10.77-29.13,12.39-46.54
	c4.18-44.85,8.82-154.32,60.71-141.49c0,0,101.18-17.21,44.52,222.01c0,0-4.05,212.91,6.07,223.03"/>
<path class="st1" d="M324.39,385.59"/>
<path class="st1" d="M498.43,385.59"/>
<circle class="st1" cx="326.68" cy="385.33" r="7.08"/>
<circle class="st1" cx="498.43" cy="385.59" r="7.08"/>
<g>
	<path class="st2" d="M23.49,512.09H0v-28.47h23.49v-20.4c0-25.15,6.41-46.5,45.08-46.5c7.12,0,14.23,0.47,20.88,2.13l-1.66,30.13
		c-4.03-1.42-7.35-2.37-11.63-2.37c-11.39,0-17.08,3.56-17.08,18.74v18.27h26.33v28.47H59.07v86.83H23.49V512.09z"/>
	<path class="st2" d="M209.96,598.92h-34.16v-15.66h-0.47c-4.74,9.02-16.37,18.5-33.69,18.5c-36.06,0-42.7-23.72-42.7-54.57v-63.58
		h35.59v56.46c0,13.29,0.24,30.37,18.5,30.37c18.5,0,21.35-14.47,21.35-29.42v-57.41h35.59V598.92z"/>
	<path class="st2" d="M235.1,483.62h34.16v15.66h0.47c4.75-9.01,16.37-18.5,33.69-18.5c36.06,0,42.7,23.72,42.7,54.57v63.58h-35.59
		v-56.46c0-13.29-0.24-30.37-18.5-30.37c-18.5,0-21.35,14.47-21.35,29.42v57.41H235.1V483.62z"/>
	<path class="st2" d="M443.63,584.45h-0.47c-7.83,12.34-22.06,17.32-36.54,17.32c-21.59,0-41.04-12.34-41.04-35.59
		c0-39.86,48.4-40.57,78.05-40.57c0-12.57-10.44-20.64-22.78-20.64c-11.63,0-21.35,5.22-28.94,13.76l-18.98-19.45
		c13.05-12.34,32.03-18.5,50.77-18.5c41.52,0,52.67,21.12,52.67,59.55v58.6h-32.74V584.45z M434.85,548.38
		c-10.91,0-35.11,0.95-35.11,16.61c0,8.54,9.02,12.57,16.84,12.57c14,0,27.05-7.35,27.05-21.59v-7.59H434.85z"/>
	<path class="st2" d="M498.66,483.62h34.16v15.66h0.47c4.74-9.01,16.37-18.5,33.69-18.5c36.06,0,42.7,23.72,42.7,54.57v63.58h-35.59
		v-56.46c0-13.29-0.24-30.37-18.5-30.37c-18.5,0-21.35,14.47-21.35,29.42v57.41h-35.59V483.62z"/>
	<path class="st2" d="M712.89,520.86c-3.56-4.98-10.2-8.78-17.56-8.78c-17.79,0-28.47,11.86-28.47,29.18
		c0,17.32,10.68,29.18,28.47,29.18c7.83,0,13.52-4.03,17.56-8.78l23.49,24.67c-11.15,11.39-27.52,15.42-41.04,15.42
		c-35.59,0-64.06-23.72-64.06-60.5c0-36.77,28.47-60.5,64.06-60.5c13.52,0,29.89,4.03,41.04,15.42L712.89,520.86z"/>
	<path class="st2" d="M858.31,578.99c-11.39,14.47-30.13,22.78-48.63,22.78c-35.59,0-64.06-23.72-64.06-60.5
		c0-36.77,28.47-60.5,64.06-60.5c33.21,0,54.09,23.72,54.09,60.5v11.15h-82.56c2.85,13.52,13.05,22.3,26.81,22.3
		c11.63,0,19.45-5.93,25.39-14L858.31,578.99z M828.18,528.22c0.24-11.86-9.02-21.83-21.83-21.83c-15.66,0-24.2,10.68-25.15,21.83
		H828.18z"/>
</g>
</svg>
